<svg width="24" height="24" viewBox="0 0 24 24" fill="none" xmlns="http://www.w3.org/2000/svg">
<path fill-rule="evenodd" clip-rule="evenodd" d="M9.7769 4.00007C9.89704 3.998 10.0131 4.04384 10.0994 4.12748L10.9412 4.9429C11.1208 5.11688 11.1256 5.40364 10.9517 5.58343L5.74709 10.9672H20.5474C20.7974 10.9672 21 11.17 21 11.4202V12.5798C21 12.83 20.7974 13.0328 20.5474 13.0328H5.6758L10.9496 18.4144C11.034 18.5005 11.0806 18.6168 11.079 18.7375C11.0775 18.8582 11.0279 18.9732 10.9412 19.0571L10.0994 19.8725C9.92055 20.0458 9.6355 20.042 9.46134 19.864L2.12899 12.3711C1.95701 12.195 1.957 11.9137 2.12898 11.7377L2.52516 11.3321L9.45894 4.13848C9.54236 4.05193 9.65676 4.00213 9.7769 4.00007Z" fill="#231F10"/>
</svg>
