<svg width="10" height="20" viewBox="0 0 10 20" fill="none" xmlns="http://www.w3.org/2000/svg">
<path d="M2.01761 3.87336C2.01761 4.37737 2.01761 6.62697 2.01761 6.62697H0.000228882V9.99409H2.01761V20H6.16173V9.99437H8.94263C8.94263 9.99437 9.20307 8.37986 9.32932 6.61456C8.96736 6.61456 6.1774 6.61456 6.1774 6.61456C6.1774 6.61456 6.1774 4.65567 6.1774 4.31232C6.1774 3.96822 6.62923 3.50537 7.07581 3.50537C7.52156 3.50537 8.46233 3.50537 9.33369 3.50537C9.33369 3.04693 9.33369 1.46292 9.33369 1.20278e-08C8.17046 1.20278e-08 6.84708 1.20278e-08 6.26375 1.20278e-08C1.91517 -0.000232486 2.01761 3.37024 2.01761 3.87336Z" fill="#E4C291"/>
</svg>
